<svg width="386" height="356" viewBox="0 0 386 356" fill="none" xmlns="http://www.w3.org/2000/svg">
<path d="M2.4 245.4L3.2 174.6V94.6C3.2 57 2.26666 26.0667 0.399994 1.79999C4.93333 0.999998 10.4 0.600006 16.8 0.600006C29.8667 0.600006 36.4 5.66667 36.4 15.8C36.4 17.1333 36.1333 22.4667 35.6 31.8C34 60.3333 33.2 86.6 33.2 110.6C46 111.133 67.2 111.4 96.8 111.4C126.667 111.4 148 111.133 160.8 110.6V90.2C160.533 51.8 159.6 22.3333 158 1.79999C162.533 0.999998 168 0.600006 174.4 0.600006C187.467 0.600006 194 5.66667 194 15.8C194 17.4 193.733 22.7333 193.2 31.8C191.6 59.5333 190.8 84.0667 190.8 105.4V185.8C190.8 221.8 193.333 248.2 198.4 265C193.6 267.133 187.333 268.2 179.6 268.2C171.867 268.2 166.667 266.467 164 263C161.333 259.533 160 253.667 160 245.4C160 245.4 160.267 221.8 160.8 174.6V134.2C147.2 134.733 125.733 135 96.4 135C67.0667 135 46 134.733 33.2 134.2V185.8C33.2 221.8 35.7333 248.2 40.8 265C36 267.133 29.7333 268.2 22 268.2C14.2667 268.2 9.06666 266.467 6.4 263C3.73333 259.533 2.4 253.667 2.4 245.4Z" fill="#3C4EF0"/>
<path d="M208.4 330.4L209.2 259.6V179.6C209.2 142 208.267 111.067 206.4 86.8C211.733 86 216.267 85.6 220 85.6C234.933 85.6 242.4 90.6667 242.4 100.8C242.4 102.133 242.133 107.867 241.6 118C240 148.4 239.2 176.533 239.2 202.4C262.133 184 284.533 163.733 306.4 141.6C328.267 119.2 341.6 100.8 346.4 86.4C360.267 88.8 367.2 93.8667 367.2 101.6C367.2 109.333 357.867 123.067 339.2 142.8C320.533 162.533 298.667 182.933 273.6 204C303.2 253.333 327.6 289.733 346.8 313.2C350 317.2 352.533 320 354.4 321.6C360.267 327.2 367.2 330 375.2 330C378.4 330 381.467 329.6 384.4 328.8C385.467 332.533 386 336.533 386 340.8C386 345.067 383.733 348.667 379.2 351.6C374.667 354.533 369.067 356 362.4 356C350.933 356 338.933 349.2 326.4 335.6C315.2 323.6 304.4 309.733 294 294C283.6 278.267 274.133 263.733 265.6 250.4C257.067 237.067 251.467 228.4 248.8 224.4C244.267 227.867 241.067 230.267 239.2 231.6V270.8C239.2 306.8 241.733 333.2 246.8 350C242.533 352.133 236.4 353.2 228.4 353.2C220.4 353.2 215.067 351.467 212.4 348C209.733 344.267 208.4 338.4 208.4 330.4Z" fill="#8D3CF0"/>
</svg>
